<mxfile host="app.diagrams.net" modified="2021-05-06T15:15:53.031Z" agent="5.0 (Windows)" etag="f-ZzWiL6oKew2BPhY7Wb" version="14.1.9" type="github">
  <diagram id="j8yHR8XlUsV2LLrprNr8" name="第 1 页">
    <mxGraphModel dx="994" dy="517" grid="1" gridSize="10" guides="1" tooltips="1" connect="1" arrows="1" fold="1" page="1" pageScale="1" pageWidth="827" pageHeight="1169" background="none" math="0" shadow="0">
      <root>
        <mxCell id="0" />
        <mxCell id="1" parent="0" />
        <mxCell id="nECxH6xkwldsRKD7GX-M-1" value="&lt;font style=&quot;font-size: 16px&quot;&gt;TCP三次握手&lt;/font&gt;" style="whiteSpace=wrap;html=1;strokeWidth=2;fillWeight=4;hachureGap=8;hachureAngle=45;fillColor=#dae8fc;strokeColor=#6c8ebf;" parent="1" vertex="1">
          <mxGeometry x="80" y="110" width="120" height="60" as="geometry" />
        </mxCell>
        <mxCell id="nECxH6xkwldsRKD7GX-M-2" value="&lt;font style=&quot;font-size: 16px&quot;&gt;好看的isn&lt;/font&gt;" style="whiteSpace=wrap;html=1;fillColor=#d5e8d4;strokeColor=#82b366;" parent="1" vertex="1">
          <mxGeometry x="240" y="110" width="120" height="60" as="geometry" />
        </mxCell>
        <mxCell id="nECxH6xkwldsRKD7GX-M-4" value="" style="whiteSpace=wrap;html=1;fillColor=#ffe6cc;strokeColor=#d79b00;shadow=0;" parent="1" vertex="1">
          <mxGeometry x="80" y="200" width="120" height="60" as="geometry" />
        </mxCell>
        <mxCell id="nECxH6xkwldsRKD7GX-M-5" value="" style="whiteSpace=wrap;html=1;fillColor=#dae8fc;strokeColor=#6c8ebf;shadow=0;" parent="1" vertex="1">
          <mxGeometry x="80" y="260" width="120" height="60" as="geometry" />
        </mxCell>
        <mxCell id="nECxH6xkwldsRKD7GX-M-6" value="" style="whiteSpace=wrap;html=1;fillColor=#e1d5e7;strokeColor=#9673a6;shadow=0;" parent="1" vertex="1">
          <mxGeometry x="80" y="320" width="120" height="60" as="geometry" />
        </mxCell>
        <mxCell id="nECxH6xkwldsRKD7GX-M-7" value="" style="whiteSpace=wrap;fillColor=#f8cecc;strokeColor=#b85450;shadow=0;fontFamily=Helvetica;html=1;comic=1;" parent="1" vertex="1">
          <mxGeometry x="294" y="200" width="120" height="60" as="geometry" />
        </mxCell>
        <mxCell id="nECxH6xkwldsRKD7GX-M-8" value="&lt;p&gt;&lt;font style=&quot;font-size: 16px&quot; face=&quot;Comic Sans MS&quot;&gt;DMA拷贝&lt;/font&gt;&lt;/p&gt;" style="whiteSpace=wrap;html=1;fillColor=#fff2cc;strokeColor=#d6b656;shadow=0;fontFamily=Helvetica;comic=1;" parent="1" vertex="1">
          <mxGeometry x="294" y="260" width="120" height="60" as="geometry" />
        </mxCell>
        <mxCell id="nECxH6xkwldsRKD7GX-M-9" value="" style="whiteSpace=wrap;html=1;fillColor=#d5e8d4;strokeColor=#82b366;shadow=0;fontFamily=Helvetica;comic=1;" parent="1" vertex="1">
          <mxGeometry x="294" y="320" width="120" height="60" as="geometry" />
        </mxCell>
        <mxCell id="f5DRvRE9oS0pxRLFFLRc-1" value="" style="shape=step;perimeter=stepPerimeter;whiteSpace=wrap;html=1;fixedSize=1;size=50;" vertex="1" parent="1">
          <mxGeometry x="230" y="480" width="170" height="70" as="geometry" />
        </mxCell>
        <mxCell id="f5DRvRE9oS0pxRLFFLRc-8" value="" style="shape=offPageConnector;whiteSpace=wrap;html=1;rotation=-90;align=left;size=0.4013287725299302;labelBackgroundColor=#ffffff;fillColor=#fff2cc;strokeColor=#d6b656;" vertex="1" parent="1">
          <mxGeometry x="143.03" y="438.99" width="70" height="152.02" as="geometry" />
        </mxCell>
        <mxCell id="f5DRvRE9oS0pxRLFFLRc-10" value="&lt;font style=&quot;font-size: 16px&quot;&gt;&lt;span&gt;数据采集层&lt;/span&gt;&lt;/font&gt;" style="text;html=1;strokeColor=none;fillColor=none;align=center;verticalAlign=middle;whiteSpace=wrap;fontFamily=Comic Sans MS;fontSize=18;" vertex="1" parent="1">
          <mxGeometry x="120" y="502.5" width="90" height="25" as="geometry" />
        </mxCell>
        <mxCell id="f5DRvRE9oS0pxRLFFLRc-11" value="&lt;font style=&quot;font-size: 16px&quot;&gt;&lt;span&gt;数据处理层&lt;/span&gt;&lt;/font&gt;" style="text;html=1;strokeColor=none;fillColor=none;align=center;verticalAlign=middle;whiteSpace=wrap;fontFamily=Comic Sans MS;fontSize=18;" vertex="1" parent="1">
          <mxGeometry x="280" y="502.5" width="100" height="27.5" as="geometry" />
        </mxCell>
        <mxCell id="f5DRvRE9oS0pxRLFFLRc-12" value="" style="shape=step;perimeter=stepPerimeter;whiteSpace=wrap;html=1;fixedSize=1;size=50;fillColor=#f8cecc;strokeColor=#b85450;" vertex="1" parent="1">
          <mxGeometry x="230" y="480" width="170" height="70" as="geometry" />
        </mxCell>
        <mxCell id="f5DRvRE9oS0pxRLFFLRc-13" value="&lt;font style=&quot;font-size: 16px&quot;&gt;&lt;span&gt;数据处理层&lt;/span&gt;&lt;/font&gt;" style="text;html=1;strokeColor=none;fillColor=none;align=center;verticalAlign=middle;whiteSpace=wrap;fontFamily=Comic Sans MS;fontSize=18;" vertex="1" parent="1">
          <mxGeometry x="280" y="502.5" width="100" height="27.5" as="geometry" />
        </mxCell>
        <mxCell id="f5DRvRE9oS0pxRLFFLRc-14" value="" style="shape=step;perimeter=stepPerimeter;whiteSpace=wrap;html=1;fixedSize=1;size=50;fillColor=#e1d5e7;strokeColor=#9673a6;" vertex="1" parent="1">
          <mxGeometry x="380" y="480" width="170" height="70" as="geometry" />
        </mxCell>
        <mxCell id="f5DRvRE9oS0pxRLFFLRc-15" value="&lt;font style=&quot;font-size: 16px&quot;&gt;&lt;span&gt;数据存储层&lt;/span&gt;&lt;/font&gt;" style="text;html=1;strokeColor=none;fillColor=none;align=center;verticalAlign=middle;whiteSpace=wrap;fontFamily=Comic Sans MS;fontSize=18;" vertex="1" parent="1">
          <mxGeometry x="430" y="502.5" width="100" height="27.5" as="geometry" />
        </mxCell>
        <mxCell id="f5DRvRE9oS0pxRLFFLRc-16" value="" style="shape=step;perimeter=stepPerimeter;whiteSpace=wrap;html=1;fixedSize=1;size=50;fillColor=#d5e8d4;strokeColor=#82b366;" vertex="1" parent="1">
          <mxGeometry x="530" y="481.25" width="170" height="70" as="geometry" />
        </mxCell>
        <mxCell id="f5DRvRE9oS0pxRLFFLRc-17" value="&lt;font style=&quot;font-size: 16px&quot;&gt;&lt;span&gt;数据展示层&lt;/span&gt;&lt;/font&gt;" style="text;html=1;strokeColor=none;fillColor=none;align=center;verticalAlign=middle;whiteSpace=wrap;fontFamily=Comic Sans MS;fontSize=18;" vertex="1" parent="1">
          <mxGeometry x="580" y="500" width="100" height="27.5" as="geometry" />
        </mxCell>
        <mxCell id="f5DRvRE9oS0pxRLFFLRc-50" value="&lt;p&gt;&lt;font style=&quot;font-size: 16px&quot; face=&quot;Comic Sans MS&quot;&gt;DMA拷贝&lt;/font&gt;&lt;/p&gt;" style="whiteSpace=wrap;html=1;fillColor=#fff2cc;strokeColor=#d6b656;shadow=0;fontFamily=Helvetica;comic=1;" vertex="1" parent="1">
          <mxGeometry x="460" y="290" width="120" height="60" as="geometry" />
        </mxCell>
      </root>
    </mxGraphModel>
  </diagram>
</mxfile>
